<svg width="317" height="54" viewBox="0 0 317 54" fill="none" xmlns="http://www.w3.org/2000/svg">
<path d="M46.9854 -6.81877e-05V53.8181H32.5849V11.5624H14.4002V53.8181H-0.000355214V-6.81877e-05H46.9854ZM70.3141 53.8181H54.5471L72.3113 -6.81877e-05H92.2829L110.047 53.8181H94.28L82.5073 14.821H82.0868L70.3141 53.8181ZM67.3709 32.5852H97.013V43.517H67.3709V32.5852ZM113.444 53.8181V42.571L114.915 42.3607C116.702 42.0804 118.182 41.3096 119.356 40.0482C120.547 38.7693 121.458 36.7459 122.089 33.9779C122.737 31.1924 123.149 27.3996 123.324 22.5994L124.165 -6.81877e-05H163.162V53.8181H149.077V11.3522H137.62L136.779 28.2755C136.463 34.5473 135.623 39.5489 134.256 43.2805C132.89 47.012 130.814 49.7012 128.028 51.3479C125.243 52.9947 121.572 53.8181 117.017 53.8181H113.444ZM168.293 53.8181V42.571L169.765 42.3607C171.552 42.0804 173.032 41.3096 174.206 40.0482C175.397 38.7693 176.308 36.7459 176.939 33.9779C177.587 31.1924 177.999 27.3996 178.174 22.5994L179.015 -6.81877e-05H218.012V53.8181H203.927V11.3522H192.469L191.628 28.2755C191.313 34.5473 190.472 39.5489 189.106 43.2805C187.739 47.012 185.663 49.7012 182.878 51.3479C180.092 52.9947 176.422 53.8181 171.867 53.8181H168.293ZM224.93 53.8181V-6.81877e-05H263.717V11.7727H239.54V21.0227H261.719V32.7954H239.54V42.0454H263.612V53.8181H224.93ZM269.491 11.7727V-6.81877e-05H316.267V11.7727H300.079V53.8181H285.679V11.7727H269.491Z" fill="#40BBAA"/>
</svg>
